<svg width="30" height="30" viewBox="0 0 31 31" fill="none" xmlns="http://www.w3.org/2000/svg">
<circle cx="15" cy="15" r="14.5" stroke="black" fill="white"/>
<path d="M15.2169 11.1808V21.4615H14.0954V11.1808H15.2169ZM14.6769 8.58462C14.4277 8.58462 14.2269 8.50154 14.0746 8.33539C13.9223 8.16923 13.8462 7.97539 13.8462 7.75385C13.8462 7.53231 13.9223 7.33847 14.0746 7.17231C14.2408 7.00616 14.4415 6.92308 14.6769 6.92308C14.94 6.92308 15.1408 7.00616 15.2792 7.17231C15.4315 7.33847 15.5077 7.53231 15.5077 7.75385C15.5077 7.97539 15.4315 8.16923 15.2792 8.33539C15.1408 8.50154 14.94 8.58462 14.6769 8.58462Z" fill="black"/>
</svg>
